<svg width="150" height="23" viewBox="0 0 150 23" fill="none" xmlns="http://www.w3.org/2000/svg">
<path d="M11.3828 4.7382L4.30166 22.6052H0L7.84225 2.86266C8.66949 0.789701 10.1916 0 12.541 0C14.8573 0 16.3794 0.789701 17.1735 2.86266L24.718 22.6052H20.3832L13.5998 4.7382C13.4013 4.21173 13.0373 3.9814 12.5079 3.9814C11.9785 3.9814 11.6145 4.21173 11.3828 4.7382ZM27.9667 0.394851H40.0775C45.1072 0.394851 47.258 3.48784 47.258 7.04149C47.258 9.80544 45.9344 12.7668 42.5262 13.721L47.7213 22.6052H43.3865L38.2907 14.0172H32.4669C32.1029 14.0172 31.9044 14.1817 31.9044 14.5765V22.6052H27.9998V13.8197C27.9998 11.319 29.0587 10.299 31.5073 10.299H40.2099C42.4269 10.299 43.3203 8.78541 43.3203 7.20601C43.3203 5.62661 42.3607 4.27754 40.2099 4.27754H27.9667V0.394851ZM60.4349 0.394851H69.0713V4.27754H60.4349C56.1332 4.27754 54.2471 6.41631 54.2471 11.5165C54.2471 16.5837 56.1001 18.7225 60.4349 18.7225H69.0713V22.6052H60.4349C53.9162 22.6052 50.3425 18.9528 50.3425 11.5165C50.3425 4.04721 53.9493 0.394851 60.4349 0.394851ZM83.0232 4.7382L75.942 22.6052H71.6404L79.4826 2.86266C80.3099 0.789701 81.832 0 84.1814 0C86.4976 0 88.0198 0.789701 88.8139 2.86266L96.358 22.6052H92.0233L85.2402 4.7382C85.0417 4.21173 84.6777 3.9814 84.1483 3.9814C83.6188 3.9814 83.2549 4.21173 83.0232 4.7382ZM103.545 5.03434V22.6052H99.6403V4.83691C99.6403 1.94135 101.295 0 104.769 0C107.88 0 109.269 1.5794 110.196 4.11302L116.715 18.2947C116.979 18.8212 117.409 19.216 118.137 19.216C118.965 19.216 119.461 18.7225 119.461 17.9657V0.394851H123.399V18.1302C123.399 21.0587 121.711 23 118.27 23C115.159 23 113.737 21.4206 112.81 18.887L106.291 4.70529C105.994 4.04721 105.596 3.75107 104.902 3.75107C104.008 3.75107 103.545 4.24464 103.545 5.03434ZM136.665 4.7382L129.584 22.6052H125.282L133.124 2.86266C133.952 0.789701 135.474 0 137.823 0C140.139 0 141.661 0.789701 142.456 2.86266L150 22.6052H145.665L138.882 4.7382C138.683 4.21173 138.319 3.9814 137.79 3.9814C137.26 3.9814 136.896 4.21173 136.665 4.7382Z" fill="white"/>
</svg>
